<?xml version="1.0" encoding="UTF-8"?>
<!-- Generator: visioncortex VTracer 0.6.4 -->
<svg version="1.1" xmlns="http://www.w3.org/2000/svg" width="8" height="8">
<rect width="100%" height="100%" fill="none"/>
<path d="M0,0 L2,0 L2,1 L0,1 Z " fill="#ffffff" transform="translate(3,1)"/>
<path d="M0,0 L1,0 L1,4 L-1,4 L-1,5 L-3,5 L-3,4 L-4,4 L-4,3 L0,3 Z " fill="#ffffff" transform="translate(6,0)"/>
<path d="M0,0 L1,0 L1,1 L0,1 Z " fill="#ffffff" transform="translate(1,4)"/>
<path d="M0,0 L1,0 L1,2 L0,2 Z " fill="#ffffff" transform="translate(2,5)"/>
<path d="M0,0 L1,0 L1,2 L0,2 Z " fill="#ffffff" transform="translate(5,5)"/>
</svg>
