<?xml version="1.0" encoding="UTF-8"?>
<!-- Generator: visioncortex VTracer 0.6.4 -->
<svg version="1.1" xmlns="http://www.w3.org/2000/svg" width="8" height="8">
<rect width="100%" height="100%" fill="none"/>
<path d="M0,0 L4,0 L4,1 L0,1 Z " fill="#ffffff" transform="translate(2,0)"/>
<path d="M0,0 L1,0 L1,1 L0,1 Z " fill="#ffffff" transform="translate(1,1)"/>
<path d="M0,0 L1,0 L1,1 L0,1 Z " fill="#ffffff" transform="translate(6,1)"/>
<path d="M0,0 L1,0 L1,4 L0,4 Z " fill="#ffffff" transform="translate(0,2)"/>
<path d="M0,0 L1,0 L1,1 L0,1 Z " fill="#ffffff" transform="translate(2,2)"/>
<path d="M0,0 L1,0 L1,1 L0,1 Z " fill="#ffffff" transform="translate(5,2)"/>
<path d="M0,0 L1,0 L1,4 L0,4 Z " fill="#ffffff" transform="translate(7,2)"/>
<path d="M0,0 L1,0 L1,1 L0,1 Z " fill="#ffffff" transform="translate(2,4)"/>
<path d="M0,0 L1,0 L1,1 L0,1 Z " fill="#ffffff" transform="translate(5,4)"/>
<path d="M0,0 L2,0 L2,1 L0,1 Z " fill="#ffffff" transform="translate(3,5)"/>
<path d="M0,0 L1,0 L1,1 L0,1 Z " fill="#ffffff" transform="translate(1,6)"/>
<path d="M0,0 L1,0 L1,1 L0,1 Z " fill="#ffffff" transform="translate(6,6)"/>
<path d="M0,0 L4,0 L4,1 L0,1 Z " fill="#ffffff" transform="translate(2,7)"/>
</svg>
